<svg xmlns="http://www.w3.org/2000/svg" xmlns:xlink="http://www.w3.org/1999/xlink" width="24" height="24" viewBox="0 0 24 24">
    <defs>
        <path id="a" d="M2.307 3.648c-.731 0-1.324.596-1.324 1.326v12.719c0 .73.593 1.326 1.324 1.326h12.718c.73 0 1.326-.596 1.326-1.326V4.974c0-.73-.596-1.326-1.326-1.326H2.307zM15.025 20H2.307A2.31 2.31 0 0 1 0 17.693V4.974a2.31 2.31 0 0 1 2.307-2.307h12.718a2.311 2.311 0 0 1 2.308 2.307v12.719A2.311 2.311 0 0 1 15.025 20zM2.667 7.846h12v-1.18h-12v1.18zm0 4h12v-1.18h-12v1.18zm0 4H8v-1.18H2.667v1.18zM17.673 0H4.855C3.839 0 2.982.66 2.667 1.568h1.117c.243-.34.62-.58 1.07-.58h12.82c.737 0 1.336.6 1.336 1.337v12.814c0 .458-.246.842-.598 1.083v1.111A2.32 2.32 0 0 0 20 15.14V2.325A2.328 2.328 0 0 0 17.673 0"/>
    </defs>
    <g fill="none" fill-rule="evenodd" transform="translate(2 2)">
        <mask id="b" fill="#fff">
            <use xlink:href="#a"/>
        </mask>
        <use fill="#FFF" xlink:href="#a"/>
        <path d="M-2-2h24v24H-2z" mask="url(#b)"/>
    </g>
</svg>