<svg xmlns="http://www.w3.org/2000/svg" xmlns:xlink="http://www.w3.org/1999/xlink" width="24" height="24" viewBox="0 0 24 24">
    <defs>
        <path id="a" d="M10 0c1.801 0 3.468.45 5 1.35 1.532.901 2.749 2.118 3.65 3.65A9.694 9.694 0 0 1 20 10c0 1.801-.45 3.468-1.35 5A10.105 10.105 0 0 1 15 18.65 9.694 9.694 0 0 1 10 20a9.694 9.694 0 0 1-5-1.35A10.105 10.105 0 0 1 1.35 15 9.694 9.694 0 0 1 0 10c0-1.801.45-3.468 1.35-5A10.105 10.105 0 0 1 5 1.35 9.694 9.694 0 0 1 10 0zm7.782 6.129a8.584 8.584 0 0 0-2.076-2.722 8.164 8.164 0 0 0-3.004-1.673c.806 1.102 1.397 2.567 1.774 4.395h3.306zM13.548 10c0-.86-.053-1.72-.16-2.58H6.612a20.786 20.786 0 0 0 0 5.16h6.774c.108-.86.161-1.72.161-2.58zM10 1.29c-.565 0-1.142.43-1.734 1.29-.618.888-1.089 2.07-1.411 3.549h6.29c-.322-1.478-.793-2.661-1.411-3.548-.592-.86-1.17-1.29-1.734-1.29zm-2.702.444a8.164 8.164 0 0 0-3.004 1.673A8.584 8.584 0 0 0 2.218 6.13h3.306c.377-1.801.968-3.266 1.774-4.395zM1.29 10c0 .887.135 1.747.404 2.58h3.629a20.626 20.626 0 0 1 0-5.16h-3.63A8.354 8.354 0 0 0 1.29 10zm.928 3.871a8.584 8.584 0 0 0 2.076 2.722 8.164 8.164 0 0 0 3.004 1.673c-.806-1.102-1.397-2.567-1.774-4.395H2.218zM10 18.71c.565 0 1.142-.43 1.734-1.29.618-.888 1.089-2.07 1.411-3.549h-6.29c.322 1.478.793 2.661 1.411 3.548.592.86 1.17 1.29 1.734 1.29zm2.742-.444a8.215 8.215 0 0 0 2.964-1.673 8.584 8.584 0 0 0 2.076-2.722h-3.306c-.377 1.801-.954 3.266-1.734 4.395zm1.935-5.685h3.63A8.354 8.354 0 0 0 18.71 10c0-.887-.135-1.747-.404-2.58h-3.629a20.626 20.626 0 0 1 0 5.16z"/>
    </defs>
    <g fill="none" fill-rule="evenodd" transform="translate(2 2)">
        <mask id="b" fill="#fff">
            <use xlink:href="#a"/>
        </mask>
        <use fill="#0C0033" xlink:href="#a"/>
        <g fill="#FFF" mask="url(#b)">
            <path d="M-2-2h24v24H-2z"/>
        </g>
        <path d="M-2-2h24v24H-2z" mask="url(#b)"/>
    </g>
</svg>